<svg width="116" height="96" viewBox="0 0 116 96" fill="none" xmlns="http://www.w3.org/2000/svg">
<path d="M112.992 53.5336C112.506 55.2417 112.123 56.9776 111.846 58.7319C111.419 60.0887 110.661 61.3184 109.642 62.3109C108.622 63.3034 107.373 64.0278 106.005 64.4192C106.005 64.4192 105.348 67.9965 95.9162 68.9747C86.4838 69.9529 84.7371 65.8865 83.228 63.2873C78.9632 60.2119 74.4532 57.4918 69.7432 55.1546C65.9115 55.8099 61.9983 55.8335 58.1589 55.2244C58.7738 57.4742 63.7485 72.9153 85.2821 80.0279L88.7057 81.1598C88.7057 81.1598 74.4524 94.1834 49.7747 94.1834C34.7109 94.1834 21.338 88.5939 13.1214 79.1057C10.1945 75.8167 8.00061 71.9428 6.68519 67.7412C5.36977 63.5396 4.96294 59.1062 5.49169 54.7354C6.36005 48.826 8.76988 43.2496 12.4786 38.5677H3.61921C3.61921 38.5677 13.6943 24.2585 36.4576 14.3371C33.2929 12.7816 29.9654 11.5818 26.5362 10.7598C26.5362 10.7598 39.8812 4.75109 61.0096 6.69345L57.9214 3.28384C57.9214 3.28384 65.5651 5.24018 74.69 8.64979L71.4341 5.24017C71.4341 5.24017 90.2708 5.24018 92.3948 22.3301C94.2261 23.2987 95.7106 24.8133 96.6421 26.6638C97.5736 28.5143 97.9059 30.6088 97.593 32.6568C97.593 32.6568 106.243 41.5022 107.375 41.9913C107.375 41.9913 116.807 44.9118 113.076 53.5336H112.992ZM115.018 46.0996C113.544 43.3704 111.094 41.299 108.157 40.3004C107.235 39.6576 103.21 35.745 99.5214 32C99.6882 29.8713 99.2684 27.7376 98.3075 25.8308C97.3467 23.9239 95.8817 22.3169 94.0716 21.1843C91.2768 3.63319 71.7135 3.39563 71.448 3.39563H67.1441L68.0804 4.38777C62.4908 2.5572 58.4664 1.59302 58.4105 1.50917L52.4716 0L56.5799 4.54148C37.8969 3.731 26.2987 8.83144 25.8375 9.06899L20.8908 11.3048L26.1729 12.5485C28.1583 13.0229 30.1097 13.6298 32.014 14.3651C11.6961 24.1467 2.57118 36.9188 2.16594 37.4917L0 40.3843H8.91527C6.15103 44.6368 4.35718 49.4459 3.66113 54.4699C3.09934 59.1008 3.52897 63.7983 4.92149 68.2506C6.31402 72.7028 8.63759 76.8079 11.738 80.2934C20.4297 90.2707 34.3057 96 49.7747 96C75.1231 96 89.9214 82.5293 90.0471 82.3895L92.0454 80.2795L85.855 78.2393C69.4498 72.8314 63.1197 62.5886 60.8978 57.4044C63.7579 57.5938 66.63 57.472 69.4637 57.041C73.7524 59.2468 77.8844 61.7447 81.8306 64.517C83.3397 67.3118 85.8969 71.8393 96.1118 70.7773C103.755 69.9948 106.41 67.4795 107.291 65.9144C111.008 64.517 113.635 60.5485 113.635 58.7039C113.635 58.2009 114.194 55.9092 114.683 54.0507C115.285 52.8123 115.614 51.459 115.648 50.0824C115.682 48.7058 115.419 47.338 114.879 46.0716" fill="white"/>
<path d="M71.7276 29.834C71.2994 30.6214 71.1348 31.5253 71.2581 32.413C71.3813 33.3008 71.7858 34.1257 72.4123 34.7667C74.2848 36.0523 76.7861 35.7449 79.2455 34.5432C76.4507 33.4951 73.4603 32.0558 71.7276 29.834Z" fill="white"/>
<path d="M83.2141 89.5911H84.224V92.197H84.6901V89.5911H85.6929V89.125H83.2141V89.5911Z" fill="white"/>
<path d="M88.1062 91.2931L87.2234 89.125H86.4607V92.197H86.9268V89.5911H86.9409L87.9579 92.197H88.2474L89.2926 89.5911H89.3067V92.197H89.7799V89.125H89.0172L88.1062 91.2931Z" fill="white"/>
<path d="M94.6864 61.4849C92.7405 59.7088 90.5294 58.2472 88.1327 57.153L83.8428 57.0552C83.8428 57.0552 89.6559 59.4866 92.3948 62.8823C95.823 63.5253 99.3622 63.211 102.624 61.974C99.9678 62.1193 97.3042 61.9552 94.6864 61.4849Z" fill="#FA4616"/>
<path d="M111.441 50.9762C111.441 50.9762 109.848 57.0269 109.736 58.1448C109.313 59.3025 108.596 60.3301 107.655 61.1264C106.714 61.9227 105.582 62.4603 104.37 62.6863C103.308 67.088 91.291 67.1998 91.291 67.1998C91.291 67.1998 86.0508 66.3195 85.0447 61.8618C80.299 58.5642 75.3363 55.5904 70.1905 52.9605C70.1905 52.9605 49.2997 55.5596 43.8639 44.0452C43.8639 44.0452 43.7521 43.8496 43.6682 43.654C42.8429 41.9504 42.4585 40.0669 42.5503 38.1762C41.4657 40.8597 41.2411 43.8138 41.9075 46.6304C39.2745 51.326 38.235 56.7489 38.9451 62.0854C39.4723 58.0755 41.2355 54.3293 43.9896 51.3675L44.0595 51.4653C44.5905 52.1919 47.8184 56.5658 56.4682 56.5378C56.4682 56.5378 60.0595 73.0828 84.6534 81.6906C81.9874 83.5823 79.1527 85.2242 76.1853 86.5955C64.7244 82.5053 55.1596 74.3573 49.2997 63.6924C48.2601 61.7641 47.3904 59.7489 46.7006 57.6697C46.7006 57.6697 44.311 75.8356 67.0883 89.9352C61.4431 91.5335 55.5999 92.3239 49.7329 92.2828C23.6578 92.0312 4.63942 74.7038 7.23854 54.8889C7.58697 52.3135 8.27293 49.7952 9.27873 47.3989C9.27873 47.3989 9.62807 46.5885 9.86562 46.0854C11.651 42.4397 14.01 39.1041 16.8525 36.2059H16.7547C27.9337 24.1465 44.9259 18.5291 44.9259 18.5291C44.9259 18.5291 25.9914 21.757 13.0656 36.2758L8.17479 36.3596C8.17479 36.3596 9.57217 34.8365 11.9337 32.5867C18.9708 26.0454 27.0458 20.7187 35.8289 16.8243C39.6876 15.2461 43.7377 14.1843 47.8744 13.6662L39.1826 13.0374C37.4297 12.0946 35.5966 11.309 33.7049 10.6898C33.7049 10.6898 49.7329 5.78497 66.0543 9.72558C65.6779 8.9019 65.2091 8.12369 64.6569 7.40593C69.2989 8.82581 73.818 10.6204 78.1696 12.7719C78.1696 12.7719 86.3023 17.5649 84.36 26.5221C83.5635 30.1972 79.4831 26.3544 79.4831 26.3544C77.212 24.6341 74.5363 23.5273 71.7137 23.1404C71.7137 23.1404 75.0115 15.6225 66.3477 14.3369C57.684 13.0513 55.3643 13.792 51.8848 11.4583C51.8848 11.4583 53.2822 14.4068 58.2429 14.6304C63.2036 14.854 72.2167 17.6627 68.0246 24.412C71.1422 25.0676 73.982 26.668 76.1573 28.9954C77.1757 30.3854 78.6375 31.3866 80.3015 31.8337C81.9656 32.2808 83.7323 32.1472 85.3102 31.4548C84.9918 32.1258 84.5104 32.7063 83.9099 33.1432C83.3094 33.5802 82.609 33.8597 81.8726 33.9561C81.8726 33.9561 90.9416 39.881 94.7983 45.5404C95.0199 46.0082 95.3618 46.4087 95.7891 46.7009C96.2163 46.9931 96.7135 47.1665 97.2298 47.2033C98.9346 47.2033 107.011 47.8601 103.784 57.3623C103.784 57.3623 102.903 59.8356 104.748 57.5719C105.26 57.0763 105.661 56.4772 105.923 55.8146C106.186 55.152 106.305 54.441 106.271 53.7291C106.271 53.7291 106.97 54.4557 106.425 57.2365C105.88 60.0173 108.241 56.7334 108.311 54.9029C108.381 53.0723 109.024 50.8924 108.968 49.9002C108.968 49.9002 110.281 47.1754 104.217 45.7919C99.6223 40.5221 94.6584 35.5862 89.3626 31.0217C95.6787 28.2269 86.9591 24.0348 86.9591 24.0348C87.7695 15.4409 81.3696 11.123 77.1774 8.90113C75.3608 7.96489 77.3591 8.57973 77.3591 8.57973C88.8875 12.5483 90.2289 19.5352 90.2289 23.1684C97.8307 27.64 94.9521 32.95 94.9521 32.95C98.753 36.6391 106.369 43.6819 106.369 43.6819C106.369 43.6819 112.95 45.7221 111.581 50.8644L111.441 50.9762ZM107.389 41.8793C106.257 41.3902 97.6071 32.5448 97.6071 32.5448C97.92 30.4969 97.5876 28.4023 96.6561 26.5518C95.7246 24.7013 94.2402 23.1867 92.4088 22.2182C90.2988 5.14218 71.4481 5.1282 71.4481 5.1282L74.704 8.53781C65.5931 5.1282 57.9355 3.17188 57.9355 3.17188L61.0237 6.59545C39.8953 4.63912 26.5643 10.6479 26.5643 10.6479C29.9886 11.4713 33.3113 12.671 36.4717 14.2251C13.7084 24.1465 3.6333 38.4557 3.6333 38.4557H12.4927C8.78399 43.1376 6.37416 48.714 5.50581 54.6234C4.97705 58.9943 5.38388 63.4276 6.6993 67.6292C8.01472 71.8309 10.2086 75.7047 13.1355 78.9937C21.3521 88.426 34.725 94.0714 49.7888 94.0714C74.4665 94.0714 88.7198 81.0479 88.7198 81.0479L85.2962 79.916C63.7346 72.8033 58.746 57.3622 58.173 55.1125C62.0124 55.7215 65.9256 55.6979 69.7573 55.0426C74.4673 57.3798 78.9773 60.0999 83.242 63.1754C84.6394 65.7745 86.498 69.8409 95.9303 68.8627C105.363 67.8845 106.019 64.3072 106.019 64.3072C107.387 63.9158 108.637 63.1914 109.656 62.1989C110.675 61.2064 111.433 59.9768 111.86 58.6199C112.137 56.8657 112.52 55.1297 113.006 53.4216C116.737 44.7998 107.305 41.8793 107.305 41.8793" fill="#FA4616"/>
<path d="M35.8009 42.7739C32.3806 48.7015 30.2515 55.285 29.5531 62.0928C28.8548 68.9007 29.6029 75.7793 31.7485 82.2778C36.0204 84.3413 40.6521 85.5562 45.3869 85.8551C27.4725 67.6892 35.8009 42.7739 35.8009 42.7739Z" fill="#FA4616"/>
<path d="M98.1378 52.7372C98.3063 52.5404 98.5263 52.3944 98.773 52.3154C99.0198 52.2365 99.2837 52.2277 99.5351 52.29C100.529 52.5799 101.38 53.2269 101.925 54.1066C101.7 53.3279 101.254 52.6309 100.642 52.1002C100.029 51.5694 99.2759 51.2276 98.4731 51.1162C97.998 51.2559 97.3692 51.3957 97.2434 51.8988C97.2048 53.0564 97.6269 54.1821 98.4172 55.0289C98.1811 54.7006 98.036 54.3156 97.9967 53.9131C97.9575 53.5106 98.0254 53.1049 98.1937 52.7372" fill="#FA4616"/>
<path d="M56.8733 16.1675C58.6759 17.0898 61.0654 18.3474 61.7222 20.2478C61.6384 20.3456 61.5545 20.4714 61.4148 20.4435C60.7305 19.8282 59.9049 19.3914 59.0113 19.1718C59.5977 19.6648 60.0802 20.2696 60.4305 20.951C60.7807 21.6323 60.9918 22.3766 61.0515 23.1404C62.2392 22.7911 64.0698 22.1483 65.0759 22.9587L65.8724 23.5876C66.0918 22.8282 66.1078 22.0244 65.919 21.2569C65.7302 20.4893 65.3431 19.7847 64.7964 19.2138C62.4528 17.5498 59.7281 16.5022 56.8733 16.1675Z" fill="#FA4616"/>
<path d="M90.5222 51.3817C87.1794 48.1599 83.4196 45.4011 79.3432 43.1791C79.3946 42.2628 79.2246 41.3476 78.8476 40.5109C78.4706 39.6742 77.8977 38.9406 77.1772 38.3721C77.6293 39.2617 77.8531 40.2497 77.8287 41.2473C77.8043 42.2449 77.5325 43.2208 77.0375 44.0873C76.0344 45.9469 74.5284 47.4868 72.6917 48.531C74.754 48.0519 76.6503 47.029 78.1834 45.5686L78.8541 44.7162C81.6489 45.4149 86.1764 48.7546 88.7056 49.9843L90.5222 51.3817Z" fill="#FA4616"/>
<path d="M92.3948 62.8822C89.6 59.4866 83.8428 57.0551 83.8428 57.0551L88.1327 57.1529C90.5294 58.2471 92.7406 59.7087 94.6865 61.4848C97.3042 61.9551 99.9678 62.1192 102.624 61.9739C99.3622 63.211 95.8231 63.5253 92.3948 62.8822ZM78.1415 45.5687C76.6084 47.029 74.7121 48.052 72.6498 48.5311C74.4865 47.4868 75.9925 45.947 76.9956 44.0874C77.4906 43.2209 77.7625 42.245 77.7868 41.2474C77.8112 40.2498 77.5874 39.2618 77.1354 38.3721C77.8558 38.9406 78.4287 39.6743 78.8058 40.511C79.1828 41.3477 79.3527 42.2629 79.3013 43.1791C83.3805 45.3967 87.1409 48.1559 90.4803 51.3817L88.6358 49.9844C86.1066 48.7407 81.5371 45.415 78.7843 44.7163L78.1415 45.5687ZM71.7275 29.8342C73.4603 32.056 76.4926 33.4953 79.2454 34.5433C76.786 35.7451 74.2847 36.0525 72.4122 34.7669C71.7858 34.1259 71.3812 33.301 71.258 32.4132C71.1348 31.5254 71.2993 30.6215 71.7275 29.8342ZM97.2297 51.8988C97.3555 51.3957 97.9843 51.256 98.4594 51.1162C99.2622 51.2277 100.016 51.5695 100.628 52.1002C101.241 52.6309 101.686 53.3279 101.911 54.1067C101.366 53.227 100.515 52.5799 99.5214 52.2901C99.2699 52.2277 99.006 52.2365 98.7593 52.3155C98.5125 52.3944 98.2926 52.5405 98.124 52.7372C97.9557 53.105 97.8878 53.5107 97.9271 53.9132C97.9664 54.3157 98.1114 54.7006 98.3476 55.0289C97.5573 54.1821 97.1352 53.0564 97.1738 51.8988H97.2297ZM65.8725 23.6158L65.076 22.987C64.0699 22.1765 62.2812 22.8193 61.0515 23.1687C60.9919 22.4049 60.7808 21.6606 60.4305 20.9792C60.0802 20.2979 59.5978 19.6931 59.0113 19.2001C59.908 19.4118 60.7354 19.8495 61.4148 20.4717C61.5546 20.4717 61.6384 20.3739 61.7223 20.2761C61.0655 18.3756 58.676 17.118 56.8734 16.1957C59.7281 16.5304 62.4528 17.578 64.7965 19.242C65.3431 19.813 65.7302 20.5175 65.9191 21.2851C66.1079 22.0527 66.0918 22.8564 65.8725 23.6158ZM45.3869 85.8831C40.6525 85.5817 36.0212 84.3669 31.7485 82.3058C29.6029 75.8072 28.8548 68.9286 29.5531 62.1208C30.2515 55.3129 32.3806 48.7294 35.8009 42.8018C35.8009 42.8018 27.4166 67.7311 45.3869 85.8831ZM106.229 43.8219C106.229 43.8219 98.6131 36.835 94.8122 33.0761C94.8122 33.0761 97.6908 27.8219 90.0891 23.2944C90.0891 19.6612 88.6917 12.6743 77.2192 8.70578C77.2192 8.70578 75.2209 8.07695 77.0375 9.02717C81.2297 11.249 87.6576 15.5669 86.8192 24.1608C86.8192 24.1608 95.5388 28.3529 89.2227 31.1477C94.5299 35.7293 99.5033 40.6839 104.105 45.9739C110.169 47.3713 108.856 50.0822 108.856 50.0822C108.856 51.0743 108.283 53.2403 108.199 55.0708C108.115 56.9014 105.782 60.1992 106.313 57.4184C106.844 54.6377 106.159 53.911 106.159 53.911C106.193 54.623 106.074 55.334 105.812 55.9966C105.549 56.6592 105.148 57.2582 104.636 57.7538C102.791 60.0176 103.672 57.5442 103.672 57.5442C106.927 48.042 98.8227 47.4272 97.1179 47.3852C96.6016 47.3484 96.1044 47.175 95.6772 46.8828C95.2499 46.5906 94.908 46.1901 94.6865 45.7224C90.8297 40.1329 81.7607 34.1381 81.7607 34.1381C82.4962 34.0392 83.1956 33.7588 83.7957 33.3221C84.3959 32.8854 84.8778 32.3062 85.1982 31.6368C83.6204 32.3291 81.8536 32.4628 80.1896 32.0156C78.5256 31.5685 77.0637 30.5673 76.0454 29.1774C73.87 26.85 71.0302 25.2495 67.9127 24.594C72.1048 17.7748 63.2035 14.9521 58.131 14.8123C53.0585 14.6726 51.7729 11.6403 51.7729 11.6403C55.2524 13.9739 57.5581 13.2193 66.2358 14.5189C74.9135 15.8184 71.6017 23.3224 71.6017 23.3224C74.4266 23.6676 77.1159 24.7308 79.4131 26.4106C79.4131 26.4106 83.4934 30.2673 84.2899 26.5922C86.2323 17.6211 78.0996 12.842 78.0996 12.842C73.748 10.6905 69.229 8.89595 64.5869 7.47607C65.1391 8.19383 65.6079 8.97205 65.9843 9.79573C49.6629 5.85512 33.6349 10.7599 33.6349 10.7599C35.5266 11.3791 37.3597 12.1647 39.1127 13.1075L47.8044 13.7363C43.6665 14.2478 39.6155 15.3099 35.7589 16.8944C26.973 20.7836 18.8971 26.1108 11.8637 32.6569C9.46025 34.9066 8.10481 36.4158 8.10481 36.4158L12.9956 36.332C25.9214 21.8272 44.8559 18.5992 44.8559 18.5992C44.8559 18.5992 27.9197 24.1887 16.6847 36.2761H16.7825C13.9372 39.1719 11.5779 42.5079 9.79563 46.1556C9.55807 46.6586 9.23668 47.3992 9.20873 47.4691C8.20293 49.8654 7.51697 52.3837 7.16855 54.959C4.56942 74.7739 23.5878 92.1014 49.6629 92.3529C55.5299 92.394 61.3731 91.6036 67.0183 90.0053C44.241 76.0315 46.6306 57.7398 46.6306 57.7398C47.3204 59.819 48.1901 61.8342 49.2297 63.7625C55.0896 74.4275 64.6545 82.5754 76.1153 86.6656C79.0827 85.2944 81.9174 83.6525 84.5834 81.7608C59.9755 73.111 56.3983 56.608 56.3983 56.608C47.7485 56.608 44.5205 52.2621 43.9895 51.5355L43.9196 51.4377C41.1655 54.3995 39.4023 58.1456 38.8751 62.1556C38.168 56.8147 39.2072 51.3883 41.8376 46.6866C41.1859 43.8921 41.4103 40.9647 42.4803 38.3023C42.3891 40.1929 42.7734 42.0763 43.5982 43.78C43.6821 43.9756 43.7939 44.1713 43.7939 44.1713C49.3555 55.5879 70.1904 52.9608 70.1904 52.9608C75.3163 55.5838 80.2602 58.5483 84.9886 61.8342C85.9948 66.2918 91.2349 67.1721 91.2349 67.1721C91.2349 67.1721 103.252 67.0604 104.314 62.6586C105.526 62.4326 106.658 61.895 107.599 61.0987C108.54 60.3024 109.257 59.2748 109.68 58.1171C109.792 56.9992 111.385 50.9486 111.385 50.9486C112.783 45.8062 106.173 43.766 106.173 43.766" fill="#0033A0"/>
</svg>
